<svg width="262" height="61" viewBox="0 0 262 61" fill="none" xmlns="http://www.w3.org/2000/svg">
<g clip-path="url(#clip0_291_9896)">
<mask id="mask0_291_9896" style="mask-type:luminance" maskUnits="userSpaceOnUse" x="0" y="0" width="262" height="61">
<path d="M262 0H0V61H262V0Z" fill="white"/>
</mask>
<g mask="url(#mask0_291_9896)">
<path d="M84.1484 43H78.6992V21.8359H71.7207V17.3008H91.127V21.8359H84.1484V43Z" fill="#222222"/>
<path d="M118.408 30.1152C118.408 32.0957 118.162 33.9004 117.67 35.5293C117.178 37.1465 116.428 38.541 115.42 39.7129C114.424 40.8848 113.158 41.7871 111.623 42.4199C110.088 43.041 108.271 43.3516 106.174 43.3516C104.076 43.3516 102.26 43.041 100.725 42.4199C99.1895 41.7871 97.918 40.8848 96.9102 39.7129C95.9141 38.541 95.1699 37.1406 94.6777 35.5117C94.1855 33.8828 93.9395 32.0723 93.9395 30.0801C93.9395 27.4199 94.373 25.1055 95.2402 23.1367C96.1191 21.1562 97.4668 19.6211 99.2832 18.5312C101.1 17.4414 103.408 16.8965 106.209 16.8965C108.998 16.8965 111.289 17.4414 113.082 18.5312C114.887 19.6211 116.223 21.1562 117.09 23.1367C117.969 25.1172 118.408 27.4434 118.408 30.1152ZM99.6523 30.1152C99.6523 31.9082 99.875 33.4551 100.32 34.7559C100.777 36.0449 101.486 37.041 102.447 37.7441C103.408 38.4355 104.65 38.7812 106.174 38.7812C107.721 38.7812 108.975 38.4355 109.936 37.7441C110.896 37.041 111.594 36.0449 112.027 34.7559C112.473 33.4551 112.695 31.9082 112.695 30.1152C112.695 27.4199 112.191 25.2988 111.184 23.752C110.176 22.2051 108.518 21.4316 106.209 21.4316C104.674 21.4316 103.42 21.7832 102.447 22.4863C101.486 23.1777 100.777 24.1738 100.32 25.4746C99.875 26.7637 99.6523 28.3105 99.6523 30.1152Z" fill="#222222"/>
<path d="M154.408 29.9043C154.408 32.7988 153.852 35.2188 152.738 37.1641C151.637 39.0977 150.037 40.5566 147.939 41.541C145.842 42.5137 143.316 43 140.363 43H133.086V17.3008H141.154C143.85 17.3008 146.188 17.7812 148.168 18.7422C150.148 19.6914 151.684 21.1035 152.773 22.9785C153.863 24.8418 154.408 27.1504 154.408 29.9043ZM148.748 30.0449C148.748 28.1465 148.467 26.5879 147.904 25.3691C147.354 24.1387 146.533 23.2305 145.443 22.6445C144.365 22.0586 143.029 21.7656 141.436 21.7656H138.535V38.5H140.873C143.533 38.5 145.508 37.791 146.797 36.373C148.098 34.9551 148.748 32.8457 148.748 30.0449Z" fill="#222222"/>
<path d="M183.061 30.1152C183.061 32.0957 182.814 33.9004 182.322 35.5293C181.83 37.1465 181.08 38.541 180.072 39.7129C179.076 40.8848 177.811 41.7871 176.275 42.4199C174.74 43.041 172.924 43.3516 170.826 43.3516C168.729 43.3516 166.912 43.041 165.377 42.4199C163.842 41.7871 162.57 40.8848 161.562 39.7129C160.566 38.541 159.822 37.1406 159.33 35.5117C158.838 33.8828 158.592 32.0723 158.592 30.0801C158.592 27.4199 159.025 25.1055 159.893 23.1367C160.771 21.1562 162.119 19.6211 163.936 18.5312C165.752 17.4414 168.061 16.8965 170.861 16.8965C173.65 16.8965 175.941 17.4414 177.734 18.5312C179.539 19.6211 180.875 21.1562 181.742 23.1367C182.621 25.1172 183.061 27.4434 183.061 30.1152ZM164.305 30.1152C164.305 31.9082 164.527 33.4551 164.973 34.7559C165.43 36.0449 166.139 37.041 167.1 37.7441C168.061 38.4355 169.303 38.7812 170.826 38.7812C172.373 38.7812 173.627 38.4355 174.588 37.7441C175.549 37.041 176.246 36.0449 176.68 34.7559C177.125 33.4551 177.348 31.9082 177.348 30.1152C177.348 27.4199 176.844 25.2988 175.836 23.752C174.828 22.2051 173.17 21.4316 170.861 21.4316C169.326 21.4316 168.072 21.7832 167.1 22.4863C166.139 23.1777 165.43 24.1738 164.973 25.4746C164.527 26.7637 164.305 28.3105 164.305 30.1152Z" fill="#222222"/>
<path d="M197.738 43V17.3008H203.188V38.5H213.611V43H197.738Z" fill="#222222"/>
<path d="M218.094 43V17.3008H223.543V43H218.094Z" fill="#222222"/>
<path d="M245.182 35.8633C245.182 37.3867 244.812 38.7109 244.074 39.8359C243.336 40.9609 242.258 41.8281 240.84 42.4375C239.434 43.0469 237.723 43.3516 235.707 43.3516C234.816 43.3516 233.943 43.293 233.088 43.1758C232.244 43.0586 231.43 42.8887 230.645 42.666C229.871 42.4316 229.133 42.1445 228.43 41.8047V36.7422C229.648 37.2812 230.914 37.7676 232.227 38.2012C233.539 38.6348 234.84 38.8516 236.129 38.8516C237.02 38.8516 237.734 38.7344 238.273 38.5C238.824 38.2656 239.223 37.9434 239.469 37.5332C239.715 37.123 239.838 36.6543 239.838 36.127C239.838 35.4824 239.621 34.9316 239.188 34.4746C238.754 34.0176 238.156 33.5898 237.395 33.1914C236.645 32.793 235.795 32.3652 234.846 31.9082C234.248 31.627 233.598 31.2871 232.895 30.8887C232.191 30.4785 231.523 29.9805 230.891 29.3945C230.258 28.8086 229.736 28.0996 229.326 27.2676C228.928 26.4238 228.729 25.416 228.729 24.2441C228.729 22.709 229.08 21.3965 229.783 20.3066C230.486 19.2168 231.488 18.3848 232.789 17.8105C234.102 17.2246 235.648 16.9316 237.43 16.9316C238.766 16.9316 240.037 17.0898 241.244 17.4062C242.463 17.7109 243.734 18.1562 245.059 18.7422L243.301 22.9785C242.117 22.498 241.057 22.1289 240.119 21.8711C239.182 21.6016 238.227 21.4668 237.254 21.4668C236.574 21.4668 235.994 21.5781 235.514 21.8008C235.033 22.0117 234.67 22.3164 234.424 22.7148C234.178 23.1016 234.055 23.5527 234.055 24.0684C234.055 24.6777 234.23 25.1934 234.582 25.6152C234.945 26.0254 235.484 26.4238 236.199 26.8105C236.926 27.1973 237.828 27.6484 238.906 28.1641C240.219 28.7852 241.338 29.4355 242.264 30.1152C243.201 30.7832 243.922 31.5742 244.426 32.4883C244.93 33.3906 245.182 34.5156 245.182 35.8633Z" fill="#222222"/>
<path d="M259.754 43H254.305V21.8359H247.326V17.3008H266.732V21.8359H259.754V43Z" fill="#222222"/>
</g>
<path d="M42 10H30C28.8954 10 28 10.8954 28 12V16C28 17.1046 28.8954 18 30 18H42C43.1046 18 44 17.1046 44 16V12C44 10.8954 43.1046 10 42 10Z" stroke="#222222" stroke-width="3" stroke-linecap="round" stroke-linejoin="round"/>
<path d="M44 14H48C49.0609 14 50.0783 14.4214 50.8284 15.1716C51.5786 15.9217 52 16.9391 52 18V46C52 47.0609 51.5786 48.0783 50.8284 48.8284C50.0783 49.5786 49.0609 50 48 50H24C22.9391 50 21.9217 49.5786 21.1716 48.8284C20.4214 48.0783 20 47.0609 20 46V18C20 16.9391 20.4214 15.9217 21.1716 15.1716C21.9217 14.4214 22.9391 14 24 14H28" stroke="#222222" stroke-width="3" stroke-linecap="round" stroke-linejoin="round"/>
<path d="M36 28H44" stroke="#222222" stroke-width="3" stroke-linecap="round" stroke-linejoin="round"/>
<path d="M36 38H44" stroke="#222222" stroke-width="3" stroke-linecap="round" stroke-linejoin="round"/>
<path d="M28 28H28.02" stroke="#222222" stroke-width="3" stroke-linecap="round" stroke-linejoin="round"/>
<path d="M28 38H28.02" stroke="#222222" stroke-width="3" stroke-linecap="round" stroke-linejoin="round"/>
</g>
<defs>
<clipPath id="clip0_291_9896">
<rect width="262" height="61" fill="white"/>
</clipPath>
</defs>
</svg>
